<svg width="88" height="56" viewBox="0 0 88 56" fill="none" xmlns="http://www.w3.org/2000/svg">
<path d="M45.9459 6.32357L46.5 6.93115L47.0541 6.32357C54.2624 -1.57982 66.991 1.30909 71.5697 10.8466C76.06 20.1999 72.7286 36.4435 46.5 55.0812C20.2714 36.4453 16.9399 20.2017 21.4303 10.848C26.0091 1.30993 38.7377 -1.57975 45.9459 6.32357Z" stroke="#FF7373" stroke-width="1.5"/>
<path d="M4.72 44.8C3.49333 44.8 2.50667 44.44 1.76 43.72C0.986667 43.0267 0.6 42.0933 0.6 40.92C0.6 40.68 0.653333 40.3467 0.76 39.92C0.84 39.4933 1.01333 39.0933 1.28 38.72C1.54667 38.3733 1.92 38.1733 2.4 38.12V38.36C2.4 39.1867 2.6 39.76 3 40.08C3.4 40.4 3.85333 40.56 4.36 40.56C5.16 40.56 5.89333 40.32 6.56 39.84C7.25333 39.36 7.84 38.8267 8.32 38.24C8.98667 37.4133 9.65333 36.44 10.32 35.32C11.0133 34.2 11.6667 33.04 12.28 31.84C12.92 30.6133 13.4933 29.4267 14 28.28C14.5333 27.1067 15 26.0667 15.4 25.16C15.8 24.2267 16.0933 23.5067 16.28 23C16.6 22.2 17.0267 21.2267 17.56 20.08C18.12 18.9333 18.7333 17.7867 19.4 16.64C20.0933 15.4667 20.8 14.4533 21.52 13.6C22.24 12.72 22.9333 12.16 23.6 11.92C23.1733 11.7867 22.6133 11.7067 21.92 11.68C21.2533 11.6267 20.5867 11.6 19.92 11.6C19.36 11.6 18.84 11.6133 18.36 11.64C17.9067 11.64 17.5467 11.6667 17.28 11.72C16.08 11.9067 14.8533 12.2133 13.6 12.64C12.3467 13.0667 11.2533 13.5733 10.32 14.16C9.41333 14.72 8.84 15.3467 8.6 16.04C8.57333 16.12 8.52 16.16 8.44 16.16C8.2 16.16 8.08 15.9733 8.08 15.6C8.08 15.52 8.10667 15.4 8.16 15.24C8.4 14.5467 8.69333 13.9333 9.04 13.4C9.41333 12.8667 9.78667 12.4133 10.16 12.04C11.04 11.1333 12.0267 10.5867 13.12 10.4C14.2133 10.1867 15.3733 10.08 16.6 10.08H18.48L27.48 10.12C26.6533 10.7333 25.9467 11.28 25.36 11.76C24.8 12.24 24.2933 12.7467 23.84 13.28C23.4133 13.7867 23 14.4133 22.6 15.16C22.2 15.88 21.7733 16.8 21.32 17.92C20.8667 19.0133 20.3467 20.3867 19.76 22.04C19.44 22.9467 19.04 24.1333 18.56 25.6C18.1067 27.04 17.56 28.6267 16.92 30.36C16.3067 32.0667 15.5867 33.7733 14.76 35.48C13.96 37.16 13.0533 38.7067 12.04 40.12C11.0533 41.5333 9.94667 42.6667 8.72 43.52C7.49333 44.3733 6.16 44.8 4.72 44.8ZM33.1069 38.24C32.2802 38.24 31.7069 37.92 31.3869 37.28C31.0935 36.64 30.9469 35.8533 30.9469 34.92C30.9469 34.0667 31.0269 33.2267 31.1869 32.4C31.2669 32.0267 31.3469 31.6533 31.4269 31.28C31.5335 30.88 31.6535 30.4667 31.7869 30.04C31.3335 30.8667 30.8535 31.6667 30.3469 32.44C29.8669 33.2133 29.3735 33.8933 28.8669 34.48C28.0135 35.52 27.1069 36.3867 26.1469 37.08C25.2135 37.7733 24.2802 38.12 23.3469 38.12C22.6002 38.12 21.9602 37.8533 21.4269 37.32C20.9202 36.76 20.6669 35.8 20.6669 34.44C20.6669 33.0533 20.9069 31.6267 21.3869 30.16C21.8669 28.6933 22.5335 27.3333 23.3869 26.08C24.2669 24.8 25.2935 23.7733 26.4669 23C27.6669 22.2267 28.9735 21.84 30.3869 21.84C30.8402 21.84 31.3335 21.9067 31.8669 22.04C32.4002 22.1733 32.8935 22.4267 33.3469 22.8C33.8002 23.1467 34.1069 23.64 34.2669 24.28C34.2935 24.2267 34.3202 24.1867 34.3469 24.16C34.4002 24.1333 34.4402 24.1067 34.4669 24.08C34.8402 23.4933 35.2669 23 35.7469 22.6C36.2269 22.2 36.7602 22 37.3469 22C37.6402 22 38.0535 22.0133 38.5869 22.04C39.1202 22.0667 39.5069 22.0667 39.7469 22.04C39.6135 22.1467 39.4269 22.36 39.1869 22.68C38.9735 23 38.7735 23.3333 38.5869 23.68C38.4002 24 38.2535 24.2533 38.1469 24.44C37.4269 25.8267 36.7735 27.2 36.1869 28.56C35.6002 29.92 35.1469 31.2267 34.8269 32.48C34.7469 32.7467 34.6935 33 34.6669 33.24C34.6402 33.4533 34.6269 33.6667 34.6269 33.88C34.6269 34.5733 34.8535 34.92 35.3069 34.92C35.7335 34.92 36.2669 34.6533 36.9069 34.12C37.8402 33.3733 38.6535 32.44 39.3469 31.32C40.0669 30.2 40.6935 29.12 41.2269 28.08C41.3335 27.8933 41.4269 27.8 41.5069 27.8C41.6669 27.8 41.7469 28.0267 41.7469 28.48C41.7469 28.6933 41.7069 28.9333 41.6269 29.2C41.5735 29.4667 41.4802 29.72 41.3469 29.96C40.9735 30.6 40.4802 31.3867 39.8669 32.32C39.2802 33.2533 38.6135 34.1733 37.8669 35.08C37.1202 35.96 36.3335 36.7067 35.5069 37.32C34.7069 37.9333 33.9069 38.24 33.1069 38.24ZM25.1469 34.76C25.2269 34.7867 25.3469 34.8 25.5069 34.8C26.0135 34.8 26.5602 34.5867 27.1469 34.16C27.7335 33.7333 28.3202 33.1867 28.9069 32.52C29.4935 31.8267 30.0135 31.1333 30.4669 30.44C31.6402 28.5733 32.5069 27.1733 33.0669 26.24C33.6269 25.3067 33.9469 24.7733 34.0269 24.64C33.8935 24.1867 33.6535 23.8533 33.3069 23.64C32.9869 23.4267 32.6002 23.32 32.1469 23.32C31.5602 23.32 30.9335 23.48 30.2669 23.8C29.6269 24.12 29.0802 24.5067 28.6269 24.96C27.9335 25.6533 27.2669 26.5467 26.6269 27.64C26.0135 28.7333 25.5069 29.8133 25.1069 30.88C24.7335 31.9467 24.5469 32.84 24.5469 33.56C24.5469 34.2267 24.7469 34.6267 25.1469 34.76ZM59.6131 38.24C58.7065 38.24 58.0798 37.9733 57.7331 37.44C57.4131 36.88 57.2531 36.24 57.2531 35.52C57.2531 34.7467 57.3731 33.8533 57.6131 32.84C57.8798 31.8 58.1998 30.7333 58.5731 29.64C58.9731 28.52 59.3731 27.48 59.7731 26.52C59.9065 26.2 60.0265 25.8533 60.1331 25.48C60.2665 25.1067 60.3331 24.7733 60.3331 24.48C60.3331 23.9467 60.0931 23.68 59.6131 23.68C59.4265 23.68 59.2131 23.72 58.9731 23.8C58.7331 23.8533 58.4531 23.9733 58.1331 24.16C57.5731 24.4267 57.0398 24.8 56.5331 25.28C56.0265 25.7333 55.6665 26.08 55.4531 26.32C54.4398 27.6267 53.6665 29.04 53.1331 30.56C52.6265 32.08 52.0931 33.6267 51.5331 35.2C51.3731 35.6533 51.2131 36.12 51.0531 36.6C50.8931 37.08 50.7465 37.5467 50.6131 38H46.6931C47.1465 36.72 47.5998 35.4533 48.0531 34.2C48.5331 32.92 49.0131 31.6533 49.4931 30.4C49.7865 29.68 50.0531 28.9867 50.2931 28.32C50.5331 27.6267 50.7465 26.9867 50.9331 26.4C51.0398 26.1067 51.1331 25.8 51.2131 25.48C51.2931 25.16 51.3331 24.8667 51.3331 24.6C51.3331 23.9867 51.0665 23.68 50.5331 23.68C50.3465 23.68 50.1198 23.72 49.8531 23.8C49.6131 23.8533 49.3198 23.9733 48.9731 24.16C48.4131 24.4267 47.8798 24.8 47.3731 25.28C46.8665 25.7333 46.5198 26.08 46.3331 26.32C45.9865 26.7467 45.6531 27.2267 45.3331 27.76C45.0131 28.2667 44.7331 28.7867 44.4931 29.32C43.9598 30.4667 43.5331 31.56 43.2131 32.6C42.9198 33.6133 42.6398 34.48 42.3731 35.2C42.2131 35.6533 42.0531 36.12 41.8931 36.6C41.7331 37.08 41.5865 37.5467 41.4531 38H37.5731C37.5731 38 37.6665 37.6667 37.8531 37C38.0398 36.3333 38.2665 35.6667 38.5331 35L41.1331 28.36C41.2131 28.1467 41.3331 27.8 41.4931 27.32C41.6798 26.8133 41.8665 26.2667 42.0531 25.68C42.2398 25.0667 42.3998 24.48 42.5331 23.92C42.6665 23.3333 42.7331 22.8533 42.7331 22.48C42.7331 22.24 42.7065 22.08 42.6531 22C42.8931 22 43.1598 22 43.4531 22C43.7731 21.9733 44.0665 21.96 44.3331 21.96C44.7065 21.96 45.0531 21.9733 45.3731 22C45.7198 22.0267 45.9465 22.0933 46.0531 22.2C46.3465 22.4133 46.4931 22.7333 46.4931 23.16C46.4931 23.5067 46.4265 23.8533 46.2931 24.2C46.1598 24.52 46.0665 24.7867 46.0131 25C46.3865 24.6533 46.7998 24.32 47.2531 24C47.7065 23.68 48.3598 23.2667 49.2131 22.76C49.7465 22.4667 50.3731 22.2267 51.0931 22.04C51.8131 21.8533 52.4665 21.76 53.0531 21.76C54.4665 21.76 55.1731 22.3467 55.1731 23.52C55.1731 24 55.0265 24.64 54.7331 25.44C55.2931 24.88 55.8665 24.4 56.4531 24C57.0665 23.5733 57.7065 23.16 58.3731 22.76C58.9065 22.4667 59.5331 22.2267 60.2531 22.04C60.9731 21.8533 61.6265 21.76 62.2131 21.76C63.6265 21.76 64.3331 22.36 64.3331 23.56C64.3331 23.8267 64.2798 24.1333 64.1731 24.48C64.0931 24.8267 63.9731 25.2133 63.8131 25.64C63.6531 26.0667 63.4265 26.6533 63.1331 27.4C62.8398 28.12 62.5331 28.8933 62.2131 29.72C61.9198 30.52 61.6665 31.2933 61.4531 32.04C61.2665 32.76 61.1731 33.36 61.1731 33.84C61.1731 34.1333 61.2131 34.4 61.2931 34.64C61.3998 34.8533 61.5865 34.96 61.8531 34.96C62.0398 34.96 62.3065 34.8667 62.6531 34.68C63.1331 34.3867 63.6131 34 64.0931 33.52C64.5731 33.04 64.8931 32.6933 65.0531 32.48C65.5865 31.7867 66.0931 31.0533 66.5731 30.28C67.0531 29.48 67.4665 28.7467 67.8131 28.08C67.9465 27.8667 68.0398 27.76 68.0931 27.76C68.2531 27.76 68.3331 27.9867 68.3331 28.44C68.3331 28.6533 68.2931 28.9067 68.2131 29.2C68.1598 29.4667 68.0665 29.72 67.9331 29.96C67.5598 30.6 67.1198 31.3067 66.6131 32.08C66.1065 32.8533 65.5865 33.6 65.0531 34.32C64.6798 34.8267 64.1865 35.3867 63.5731 36C62.9598 36.6133 62.3065 37.1467 61.6131 37.6C60.9198 38.0267 60.2531 38.24 59.6131 38.24ZM75.1747 18.8C74.4814 18.56 74.1347 18.1067 74.1347 17.44C74.1347 16.8267 74.3747 16.2 74.8547 15.56C75.3614 14.8933 75.908 14.4667 76.4947 14.28C76.628 14.2267 76.7347 14.2 76.8147 14.2C76.9214 14.2 77.028 14.2 77.1347 14.2C77.588 14.2 77.9614 14.3333 78.2547 14.6C78.548 14.8667 78.6947 15.1733 78.6947 15.52C78.6947 16 78.4414 16.4 77.9347 16.72C77.5347 16.6667 77.148 16.76 76.7747 17C76.4014 17.24 76.068 17.5333 75.7747 17.88C75.508 18.2267 75.308 18.5333 75.1747 18.8ZM68.2947 38.24C67.948 38.24 67.6147 38.16 67.2947 38C66.9747 37.8667 66.708 37.5867 66.4947 37.16C66.2014 36.52 66.0547 35.76 66.0547 34.88C66.0547 33.92 66.2014 32.8533 66.4947 31.68C66.788 30.48 67.1747 29.2533 67.6547 28C67.8414 27.5467 68.0814 26.9867 68.3747 26.32C68.668 25.6533 69.0147 24.9867 69.4147 24.32C69.8147 23.6533 70.268 23.1067 70.7747 22.68C71.308 22.2267 71.8814 22 72.4947 22C72.788 22 73.2014 22.0133 73.7347 22.04C74.268 22.0667 74.6547 22.0667 74.8947 22.04C74.7347 22.1467 74.548 22.36 74.3347 22.68C74.1214 23 73.9214 23.3333 73.7347 23.68C73.548 24 73.4014 24.2533 73.2947 24.44C72.6014 25.8267 71.948 27.2 71.3347 28.56C70.7214 29.92 70.2547 31.2267 69.9347 32.48C69.8814 32.6933 69.8414 32.9067 69.8147 33.12C69.788 33.3333 69.7747 33.5333 69.7747 33.72C69.7747 34.4933 70.028 34.88 70.5347 34.88C70.748 34.88 70.9747 34.8267 71.2147 34.72C71.4814 34.5867 71.788 34.3867 72.1347 34.12C72.748 33.64 73.2814 33.0933 73.7347 32.48C74.268 31.7867 74.7747 31.0533 75.2547 30.28C75.7347 29.48 76.148 28.7467 76.4947 28.08C76.628 27.8667 76.7214 27.76 76.7747 27.76C76.9347 27.76 77.0147 27.9867 77.0147 28.44C77.0147 28.6533 76.9747 28.9067 76.8947 29.2C76.8414 29.4667 76.748 29.72 76.6147 29.96C76.2414 30.6 75.8014 31.3067 75.2947 32.08C74.788 32.8533 74.268 33.6 73.7347 34.32C73.3614 34.8267 72.868 35.3867 72.2547 36C71.6414 36.6133 70.988 37.1467 70.2947 37.6C69.6014 38.0267 68.9347 38.24 68.2947 38.24ZM78.3266 38.24C77.5532 38.24 76.9666 37.9333 76.5666 37.32C76.3799 37.0267 76.2466 36.68 76.1666 36.28C76.0866 35.88 76.0466 35.4667 76.0466 35.04C76.0466 34.6133 76.0732 34.1867 76.1266 33.76C76.1799 33.3067 76.2466 32.8667 76.3266 32.44C76.4599 31.7467 76.6066 31.12 76.7666 30.56C76.9532 29.9733 77.1399 29.4133 77.3266 28.88V28.84C77.1132 29.24 76.8466 29.68 76.5266 30.16C76.2066 30.6133 75.9799 30.9467 75.8466 31.16C75.6599 31.4533 75.5132 31.6 75.4066 31.6C75.2999 31.6 75.2466 31.48 75.2466 31.24C75.2466 30.7067 75.4066 30.12 75.7266 29.48C75.9399 29.0533 76.2332 28.5067 76.6066 27.84C76.9799 27.1467 77.3666 26.4 77.7666 25.6C78.1666 24.8 78.5132 24.0267 78.8066 23.28H76.1266C75.9932 23.28 75.9666 23.1733 76.0466 22.96C76.1266 22.7467 76.2466 22.5467 76.4066 22.36C76.5666 22.1467 76.6866 22.04 76.7666 22.04H79.8066C80.0999 21.3467 80.4332 20.6 80.8066 19.8C81.2066 19 81.6466 18.2533 82.1266 17.56C82.6332 16.84 83.1799 16.2533 83.7666 15.8C84.3532 15.3467 84.9799 15.12 85.6466 15.12C85.9399 15.12 86.2999 15.12 86.7266 15.12C87.1799 15.12 87.4599 15.1067 87.5666 15.08C87.0066 15.4533 86.3532 16.2 85.6066 17.32C84.8599 18.4133 84.0466 19.9867 83.1666 22.04H87.2066C87.2866 22.04 87.2599 22.1467 87.1266 22.36C86.9932 22.5467 86.8199 22.7467 86.6066 22.96C86.4199 23.1733 86.2332 23.28 86.0466 23.28H82.6066C82.2599 24.16 81.8732 25.12 81.4466 26.16C81.0466 27.2 80.6732 28.2267 80.3266 29.24C80.0066 30.2267 79.7666 31.1333 79.6066 31.96C79.4999 32.4667 79.4466 32.9333 79.4466 33.36C79.4466 34.3733 79.7666 34.88 80.4066 34.88C80.8332 34.88 81.3399 34.6667 81.9266 34.24C82.5132 33.8133 83.0999 33.2267 83.6866 32.48C84.2199 31.7867 84.7266 31.04 85.2066 30.24C85.7132 29.44 86.1399 28.7067 86.4866 28.04C86.5932 27.8533 86.6866 27.76 86.7666 27.76C86.9266 27.76 87.0066 27.9733 87.0066 28.4C87.0066 28.6133 86.9666 28.8667 86.8866 29.16C86.8332 29.4267 86.7266 29.6933 86.5666 29.96C86.1932 30.6 85.7532 31.3067 85.2466 32.08C84.7399 32.8267 84.2199 33.5733 83.6866 34.32C83.3132 34.8 82.8199 35.3467 82.2066 35.96C81.6199 36.5733 80.9799 37.1067 80.2866 37.56C79.6199 38.0133 78.9666 38.24 78.3266 38.24Z" fill="#F64F4F"/>
</svg>
