<svg width="110" height="63" viewBox="0 0 110 63" fill="none" xmlns="http://www.w3.org/2000/svg">
<path d="M5.9 56.5C4.36667 56.5 3.13333 56.05 2.2 55.15C1.23333 54.2833 0.75 53.1167 0.75 51.65C0.75 51.35 0.816667 50.9333 0.95 50.4C1.05 49.8667 1.26667 49.3667 1.6 48.9C1.93333 48.4667 2.4 48.2167 3 48.15V48.45C3 49.4833 3.25 50.2 3.75 50.6C4.25 51 4.81667 51.2 5.45 51.2C6.45 51.2 7.36667 50.9 8.2 50.3C9.06667 49.7 9.8 49.0333 10.4 48.3C11.2333 47.2667 12.0667 46.05 12.9 44.65C13.7667 43.25 14.5833 41.8 15.35 40.3C16.15 38.7667 16.8667 37.2833 17.5 35.85C18.1667 34.3833 18.75 33.0833 19.25 31.95C19.75 30.7833 20.1167 29.8833 20.35 29.25C20.75 28.25 21.2833 27.0333 21.95 25.6C22.65 24.1667 23.4167 22.7333 24.25 21.3C25.1167 19.8333 26 18.5667 26.9 17.5C27.8 16.4 28.6667 15.7 29.5 15.4C28.9667 15.2333 28.2667 15.1333 27.4 15.1C26.5667 15.0333 25.7333 15 24.9 15C24.2 15 23.55 15.0167 22.95 15.05C22.3833 15.05 21.9333 15.0833 21.6 15.15C20.1 15.3833 18.5667 15.7667 17 16.3C15.4333 16.8333 14.0667 17.4667 12.9 18.2C11.7667 18.9 11.05 19.6833 10.75 20.55C10.7167 20.65 10.65 20.7 10.55 20.7C10.25 20.7 10.1 20.4667 10.1 20C10.1 19.9 10.1333 19.75 10.2 19.55C10.5 18.6833 10.8667 17.9167 11.3 17.25C11.7667 16.5833 12.2333 16.0167 12.7 15.55C13.8 14.4167 15.0333 13.7333 16.4 13.5C17.7667 13.2333 19.2167 13.1 20.75 13.1H23.1L34.35 13.15C33.3167 13.9167 32.4333 14.6 31.7 15.2C31 15.8 30.3667 16.4333 29.8 17.1C29.2667 17.7333 28.75 18.5167 28.25 19.45C27.75 20.35 27.2167 21.5 26.65 22.9C26.0833 24.2667 25.4333 25.9833 24.7 28.05C24.3 29.1833 23.8 30.6667 23.2 32.5C22.6333 34.3 21.95 36.2833 21.15 38.45C20.3833 40.5833 19.4833 42.7167 18.45 44.85C17.45 46.95 16.3167 48.8833 15.05 50.65C13.8167 52.4167 12.4333 53.8333 10.9 54.9C9.36667 55.9667 7.7 56.5 5.9 56.5ZM41.3836 48.3C40.3503 48.3 39.6336 47.9 39.2336 47.1C38.8669 46.3 38.6836 45.3167 38.6836 44.15C38.6836 43.0833 38.7836 42.0333 38.9836 41C39.0836 40.5333 39.1836 40.0667 39.2836 39.6C39.4169 39.1 39.5669 38.5833 39.7336 38.05C39.1669 39.0833 38.5669 40.0833 37.9336 41.05C37.3336 42.0167 36.7169 42.8667 36.0836 43.6C35.0169 44.9 33.8836 45.9833 32.6836 46.85C31.5169 47.7167 30.3503 48.15 29.1836 48.15C28.2503 48.15 27.4503 47.8167 26.7836 47.15C26.1503 46.45 25.8336 45.25 25.8336 43.55C25.8336 41.8167 26.1336 40.0333 26.7336 38.2C27.3336 36.3667 28.1669 34.6667 29.2336 33.1C30.3336 31.5 31.6169 30.2167 33.0836 29.25C34.5836 28.2833 36.2169 27.8 37.9836 27.8C38.5503 27.8 39.1669 27.8833 39.8336 28.05C40.5003 28.2167 41.1169 28.5333 41.6836 29C42.2503 29.4333 42.6336 30.05 42.8336 30.85C42.8669 30.7833 42.9003 30.7333 42.9336 30.7C43.0003 30.6667 43.0503 30.6333 43.0836 30.6C43.5503 29.8667 44.0836 29.25 44.6836 28.75C45.2836 28.25 45.9503 28 46.6836 28C47.0503 28 47.5669 28.0167 48.2336 28.05C48.9003 28.0833 49.3836 28.0833 49.6836 28.05C49.5169 28.1833 49.2836 28.45 48.9836 28.85C48.7169 29.25 48.4669 29.6667 48.2336 30.1C48.0003 30.5 47.8169 30.8167 47.6836 31.05C46.7836 32.7833 45.9669 34.5 45.2336 36.2C44.5003 37.9 43.9336 39.5333 43.5336 41.1C43.4336 41.4333 43.3669 41.75 43.3336 42.05C43.3003 42.3167 43.2836 42.5833 43.2836 42.85C43.2836 43.7167 43.5669 44.15 44.1336 44.15C44.6669 44.15 45.3336 43.8167 46.1336 43.15C47.3003 42.2167 48.3169 41.05 49.1836 39.65C50.0836 38.25 50.8669 36.9 51.5336 35.6C51.6669 35.3667 51.7836 35.25 51.8836 35.25C52.0836 35.25 52.1836 35.5333 52.1836 36.1C52.1836 36.3667 52.1336 36.6667 52.0336 37C51.9669 37.3333 51.8503 37.65 51.6836 37.95C51.2169 38.75 50.6003 39.7333 49.8336 40.9C49.1003 42.0667 48.2669 43.2167 47.3336 44.35C46.4003 45.45 45.4169 46.3833 44.3836 47.15C43.3836 47.9167 42.3836 48.3 41.3836 48.3ZM31.4336 43.95C31.5336 43.9833 31.6836 44 31.8836 44C32.5169 44 33.2003 43.7333 33.9336 43.2C34.6669 42.6667 35.4003 41.9833 36.1336 41.15C36.8669 40.2833 37.5169 39.4167 38.0836 38.55C39.5503 36.2167 40.6336 34.4667 41.3336 33.3C42.0336 32.1333 42.4336 31.4667 42.5336 31.3C42.3669 30.7333 42.0669 30.3167 41.6336 30.05C41.2336 29.7833 40.7503 29.65 40.1836 29.65C39.4503 29.65 38.6669 29.85 37.8336 30.25C37.0336 30.65 36.3503 31.1333 35.7836 31.7C34.9169 32.5667 34.0836 33.6833 33.2836 35.05C32.5169 36.4167 31.8836 37.7667 31.3836 39.1C30.9169 40.4333 30.6836 41.55 30.6836 42.45C30.6836 43.2833 30.9336 43.7833 31.4336 43.95ZM74.5164 48.3C73.3831 48.3 72.5997 47.9667 72.1664 47.3C71.7664 46.6 71.5664 45.8 71.5664 44.9C71.5664 43.9333 71.7164 42.8167 72.0164 41.55C72.3497 40.25 72.7497 38.9167 73.2164 37.55C73.7164 36.15 74.2164 34.85 74.7164 33.65C74.8831 33.25 75.0331 32.8167 75.1664 32.35C75.3331 31.8833 75.4164 31.4667 75.4164 31.1C75.4164 30.4333 75.1164 30.1 74.5164 30.1C74.2831 30.1 74.0164 30.15 73.7164 30.25C73.4164 30.3167 73.0664 30.4667 72.6664 30.7C71.9664 31.0333 71.2997 31.5 70.6664 32.1C70.0331 32.6667 69.5831 33.1 69.3164 33.4C68.0497 35.0333 67.0831 36.8 66.4164 38.7C65.7831 40.6 65.1164 42.5333 64.4164 44.5C64.2164 45.0667 64.0164 45.65 63.8164 46.25C63.6164 46.85 63.4331 47.4333 63.2664 48H58.3664C58.9331 46.4 59.4997 44.8167 60.0664 43.25C60.6664 41.65 61.2664 40.0667 61.8664 38.5C62.2331 37.6 62.5664 36.7333 62.8664 35.9C63.1664 35.0333 63.4331 34.2333 63.6664 33.5C63.7997 33.1333 63.9164 32.75 64.0164 32.35C64.1164 31.95 64.1664 31.5833 64.1664 31.25C64.1664 30.4833 63.8331 30.1 63.1664 30.1C62.9331 30.1 62.6497 30.15 62.3164 30.25C62.0164 30.3167 61.6497 30.4667 61.2164 30.7C60.5164 31.0333 59.8497 31.5 59.2164 32.1C58.5831 32.6667 58.1497 33.1 57.9164 33.4C57.4831 33.9333 57.0664 34.5333 56.6664 35.2C56.2664 35.8333 55.9164 36.4833 55.6164 37.15C54.9497 38.5833 54.4164 39.95 54.0164 41.25C53.6497 42.5167 53.2997 43.6 52.9664 44.5C52.7664 45.0667 52.5664 45.65 52.3664 46.25C52.1664 46.85 51.9831 47.4333 51.8164 48H46.9664C46.9664 48 47.0831 47.5833 47.3164 46.75C47.5497 45.9167 47.8331 45.0833 48.1664 44.25L51.4164 35.95C51.5164 35.6833 51.6664 35.25 51.8664 34.65C52.0997 34.0167 52.3331 33.3333 52.5664 32.6C52.7997 31.8333 52.9997 31.1 53.1664 30.4C53.3331 29.6667 53.4164 29.0667 53.4164 28.6C53.4164 28.3 53.3831 28.1 53.3164 28C53.6164 28 53.9497 28 54.3164 28C54.7164 27.9667 55.0831 27.95 55.4164 27.95C55.8831 27.95 56.3164 27.9667 56.7164 28C57.1497 28.0333 57.4331 28.1167 57.5664 28.25C57.9331 28.5167 58.1164 28.9167 58.1164 29.45C58.1164 29.8833 58.0331 30.3167 57.8664 30.75C57.6997 31.15 57.5831 31.4833 57.5164 31.75C57.9831 31.3167 58.4997 30.9 59.0664 30.5C59.6331 30.1 60.4497 29.5833 61.5164 28.95C62.1831 28.5833 62.9664 28.2833 63.8664 28.05C64.7664 27.8167 65.5831 27.7 66.3164 27.7C68.0831 27.7 68.9664 28.4333 68.9664 29.9C68.9664 30.5 68.7831 31.3 68.4164 32.3C69.1164 31.6 69.8331 31 70.5664 30.5C71.3331 29.9667 72.1331 29.45 72.9664 28.95C73.6331 28.5833 74.4164 28.2833 75.3164 28.05C76.2164 27.8167 77.0331 27.7 77.7664 27.7C79.5331 27.7 80.4164 28.45 80.4164 29.95C80.4164 30.2833 80.3497 30.6667 80.2164 31.1C80.1164 31.5333 79.9664 32.0167 79.7664 32.55C79.5664 33.0833 79.2831 33.8167 78.9164 34.75C78.5497 35.65 78.1664 36.6167 77.7664 37.65C77.3997 38.65 77.0831 39.6167 76.8164 40.55C76.5831 41.45 76.4664 42.2 76.4664 42.8C76.4664 43.1667 76.5164 43.5 76.6164 43.8C76.7497 44.0667 76.9831 44.2 77.3164 44.2C77.5497 44.2 77.8831 44.0833 78.3164 43.85C78.9164 43.4833 79.5164 43 80.1164 42.4C80.7164 41.8 81.1164 41.3667 81.3164 41.1C81.9831 40.2333 82.6164 39.3167 83.2164 38.35C83.8164 37.35 84.3331 36.4333 84.7664 35.6C84.9331 35.3333 85.0497 35.2 85.1164 35.2C85.3164 35.2 85.4164 35.4833 85.4164 36.05C85.4164 36.3167 85.3664 36.6333 85.2664 37C85.1997 37.3333 85.0831 37.65 84.9164 37.95C84.4497 38.75 83.8997 39.6333 83.2664 40.6C82.6331 41.5667 81.9831 42.5 81.3164 43.4C80.8497 44.0333 80.2331 44.7333 79.4664 45.5C78.6997 46.2667 77.8831 46.9333 77.0164 47.5C76.1497 48.0333 75.3164 48.3 74.5164 48.3ZM93.9684 24C93.1017 23.7 92.6684 23.1333 92.6684 22.3C92.6684 21.5333 92.9684 20.75 93.5684 19.95C94.2017 19.1167 94.885 18.5833 95.6184 18.35C95.785 18.2833 95.9184 18.25 96.0184 18.25C96.1517 18.25 96.285 18.25 96.4184 18.25C96.985 18.25 97.4517 18.4167 97.8184 18.75C98.185 19.0833 98.3684 19.4667 98.3684 19.9C98.3684 20.5 98.0517 21 97.4184 21.4C96.9184 21.3333 96.435 21.45 95.9684 21.75C95.5017 22.05 95.085 22.4167 94.7184 22.85C94.385 23.2833 94.135 23.6667 93.9684 24ZM85.3684 48.3C84.935 48.3 84.5184 48.2 84.1184 48C83.7184 47.8333 83.385 47.4833 83.1184 46.95C82.7517 46.15 82.5684 45.2 82.5684 44.1C82.5684 42.9 82.7517 41.5667 83.1184 40.1C83.485 38.6 83.9684 37.0667 84.5684 35.5C84.8017 34.9333 85.1017 34.2333 85.4684 33.4C85.835 32.5667 86.2684 31.7333 86.7684 30.9C87.2684 30.0667 87.835 29.3833 88.4684 28.85C89.135 28.2833 89.8517 28 90.6184 28C90.985 28 91.5017 28.0167 92.1684 28.05C92.835 28.0833 93.3184 28.0833 93.6184 28.05C93.4184 28.1833 93.185 28.45 92.9184 28.85C92.6517 29.25 92.4017 29.6667 92.1684 30.1C91.935 30.5 91.7517 30.8167 91.6184 31.05C90.7517 32.7833 89.935 34.5 89.1684 36.2C88.4017 37.9 87.8184 39.5333 87.4184 41.1C87.3517 41.3667 87.3017 41.6333 87.2684 41.9C87.235 42.1667 87.2184 42.4167 87.2184 42.65C87.2184 43.6167 87.535 44.1 88.1684 44.1C88.435 44.1 88.7184 44.0333 89.0184 43.9C89.3517 43.7333 89.735 43.4833 90.1684 43.15C90.935 42.55 91.6017 41.8667 92.1684 41.1C92.835 40.2333 93.4684 39.3167 94.0684 38.35C94.6684 37.35 95.185 36.4333 95.6184 35.6C95.785 35.3333 95.9017 35.2 95.9684 35.2C96.1684 35.2 96.2684 35.4833 96.2684 36.05C96.2684 36.3167 96.2184 36.6333 96.1184 37C96.0517 37.3333 95.935 37.65 95.7684 37.95C95.3017 38.75 94.7517 39.6333 94.1184 40.6C93.485 41.5667 92.835 42.5 92.1684 43.4C91.7017 44.0333 91.085 44.7333 90.3184 45.5C89.5517 46.2667 88.735 46.9333 87.8684 47.5C87.0017 48.0333 86.1684 48.3 85.3684 48.3ZM97.9082 48.3C96.9415 48.3 96.2082 47.9167 95.7082 47.15C95.4749 46.7833 95.3082 46.35 95.2082 45.85C95.1082 45.35 95.0582 44.8333 95.0582 44.3C95.0582 43.7667 95.0915 43.2333 95.1582 42.7C95.2249 42.1333 95.3082 41.5833 95.4082 41.05C95.5749 40.1833 95.7582 39.4 95.9582 38.7C96.1915 37.9667 96.4249 37.2667 96.6582 36.6V36.55C96.3915 37.05 96.0582 37.6 95.6582 38.2C95.2582 38.7667 94.9749 39.1833 94.8082 39.45C94.5749 39.8167 94.3915 40 94.2582 40C94.1249 40 94.0582 39.85 94.0582 39.55C94.0582 38.8833 94.2582 38.15 94.6582 37.35C94.9249 36.8167 95.2915 36.1333 95.7582 35.3C96.2249 34.4333 96.7082 33.5 97.2082 32.5C97.7082 31.5 98.1415 30.5333 98.5082 29.6H95.1582C94.9915 29.6 94.9582 29.4667 95.0582 29.2C95.1582 28.9333 95.3082 28.6833 95.5082 28.45C95.7082 28.1833 95.8582 28.05 95.9582 28.05H99.7582C100.125 27.1833 100.542 26.25 101.008 25.25C101.508 24.25 102.058 23.3167 102.658 22.45C103.292 21.55 103.975 20.8167 104.708 20.25C105.442 19.6833 106.225 19.4 107.058 19.4C107.425 19.4 107.875 19.4 108.408 19.4C108.975 19.4 109.325 19.3833 109.458 19.35C108.758 19.8167 107.942 20.75 107.008 22.15C106.075 23.5167 105.058 25.4833 103.958 28.05H109.008C109.108 28.05 109.075 28.1833 108.908 28.45C108.742 28.6833 108.525 28.9333 108.258 29.2C108.025 29.4667 107.792 29.6 107.558 29.6H103.258C102.825 30.7 102.342 31.9 101.808 33.2C101.308 34.5 100.842 35.7833 100.408 37.05C100.008 38.2833 99.7082 39.4167 99.5082 40.45C99.3749 41.0833 99.3082 41.6667 99.3082 42.2C99.3082 43.4667 99.7082 44.1 100.508 44.1C101.042 44.1 101.675 43.8333 102.408 43.3C103.142 42.7667 103.875 42.0333 104.608 41.1C105.275 40.2333 105.908 39.3 106.508 38.3C107.142 37.3 107.675 36.3833 108.108 35.55C108.242 35.3167 108.358 35.2 108.458 35.2C108.658 35.2 108.758 35.4667 108.758 36C108.758 36.2667 108.708 36.5833 108.608 36.95C108.542 37.2833 108.408 37.6167 108.208 37.95C107.742 38.75 107.192 39.6333 106.558 40.6C105.925 41.5333 105.275 42.4667 104.608 43.4C104.142 44 103.525 44.6833 102.758 45.45C102.025 46.2167 101.225 46.8833 100.358 47.45C99.5249 48.0167 98.7082 48.3 97.9082 48.3Z" fill="#F64F4F"/>
</svg>
